# xmcd
#
# Track frame offsets:
#	150
#	15432
#	30531
#	50561
#	69340
#	89299
#	105981
#	121956
#	141351
#	164496
#	183038
#	197281
#
# Disc length: 2905 seconds
#
# Revision: 1
# Processed by: cddbd v1.5.2PL0 Copyright (c) Steve Scherf et al.
# Submitted via: audiograbber 1.83.01
#
DISCID=900b570c
DTITLE=Minnie Marks - Voodoo and Honey
DYEAR=2012
DGENRE=Blues
TTITLE0=Guitar and Bicycle
TTITLE1=Jack in the box
TTITLE2=Liar liar paints on fire
TTITLE3=Thief in the night
TTITLE4=Little people
TTITLE5=Voodoo and honey
TTITLE6=Legs to make us look longer
TTITLE7=Who loves ya baby
TTITLE8=Smoked filled eyes
TTITLE9=Raid the lolly jar
TTITLE10=Pants
TTITLE11=The long walk home
EXTD=
EXTT0=
EXTT1=
EXTT2=
EXTT3=
EXTT4=
EXTT5=
EXTT6=
EXTT7=
EXTT8=
EXTT9=
EXTT10=
EXTT11=
PLAYORDER=
